{"title":"Vetusta Morla - Mapas [EAC FLAC]","uid":6469520,"size":338259041,"categoryP":"audio","categoryS":"flac","magnet":"?xt=urn:btih:95a2cd2c54b2b6b94a3dd4fa8c4a6b32a5fca5a5&amp;dn=Vetusta+Morla+-+Mapas+%5BEAC+FLAC%5D&amp;tr=udp%3A%2F%2Ftracker.openbittorrent.com%3A80&amp;tr=udp%3A%2F%2Fopen.demonii.com%3A1337&amp;tr=udp%3A%2F%2Ftracker.coppersurfer.tk%3A6969&amp;tr=udp%3A%2F%2Fexodus.desync.com%3A6969","seeders":5,"leechers":0,"uploader":"frozst","files":13,"time":1308073127,"description":"Exact Audio Copy V1.0 beta 1 from 15. November 2010\n\nEAC extraction logfile from 14. June 2011, 17:34\n\nVetusta Morla / Mapas\n\nUsed drive  : TSSTcorpCDDVDW SN-S083F   Adapter: 0  ID: 1\n\nRead mode               : Secure\nUtilize accurate stream : Yes\nDefeat audio cache      : No\nMake use of C2 pointers : No\n\nRead offset correction                      : 6\nOverread into Lead-In and Lead-Out          : No\nFill up missing offset samples with silence : Yes\nDelete leading and trailing silent blocks   : No\nNull samples used in CRC calculations       : No\nUsed interface                              : Native Win32 interface for Win NT &amp; 2000\nGap handling                                : Not detected, thus appended to previous track\n\nUsed output format              : User Defined Encoder\nSelected bitrate                : 1024 kBit/s\nQuality                         : High\nAdd ID3 tag                     : Yes\nCommand line compressor         : D:\\\\Programas\\\\Editores Sonido\\\\EAC\\\\FLAC\\\\FLAC.EXE\nAdditional command line options : -6 -V -T \\&quot;ARTIST=%a\\&quot; -T \\&quot;TITLE=%t\\&quot; -T \\&quot;ALBUM=%g\\&quot; -T \\&quot;DATE=%y\\&quot; -T \\&quot;TRACKNUMBER=%n\\&quot; -T \\&quot;GENRE=%m\\&quot; -T \\&quot;COMMENT=%e\\&quot; %j--picture=\\&quot;%i\\&quot;%j %s -o %d\n\n\nTOC of the extracted CD\n\n     Track |   Start  |  Length  | Start sector | End sector \n    ---------------------------------------------------------\n        1  |  0:00.00 |  6:27.71 |         0    |    29095   \n        2  |  6:27.71 |  4:12.45 |     29096    |    48040   \n        3  | 10:40.41 |  3:07.49 |     48041    |    62114   \n        4  | 13:48.15 |  4:16.59 |     62115    |    81373   \n        5  | 18:04.74 |  3:47.05 |     81374    |    98403   \n        6  | 21:52.04 |  3:05.41 |     98404    |   112319   \n        7  | 24:57.45 |  3:47.41 |    112320    |   129385   \n        8  | 28:45.11 |  4:02.41 |    129386    |   147576   \n        9  | 32:47.52 |  3:51.56 |    147577    |   164957   \n       10  | 36:39.33 |  3:53.27 |    164958    |   182459   \n       11  | 40:32.60 |  4:35.27 |    182460    |   203111   \n       12  | 45:08.12 |  4:42.08 |    203112    |   224269   \n\n\nTrack  1\n\n     Filename C:\\\\Users\\\\David\\\\Desktop\\\\Vetusta Morla\\\\Mapas\\\\Vetusta Morla - 01 - Track01.wav\n\n     Peak level 100.0 %\n     Extraction speed 3.0 X\n     Track quality 100.0 %\n     Test CRC D3F3EF7A\n     Copy CRC D3F3EF7A\n     Track not present in AccurateRip database\n     Copy OK\n\nTrack  2\n\n     Filename C:\\\\Users\\\\David\\\\Desktop\\\\Vetusta Morla\\\\Mapas\\\\Vetusta Morla - 02 - Track02.wav\n\n     Peak level 100.0 %\n     Extraction speed 3.3 X\n     Track quality 100.0 %\n     Test CRC 525DF07C\n     Copy CRC 525DF07C\n     Track not present in AccurateRip database\n     Copy OK\n\nTrack  3\n\n     Filename C:\\\\Users\\\\David\\\\Desktop\\\\Vetusta Morla\\\\Mapas\\\\Vetusta Morla - 03 - Track03.wav\n\n     Peak level 100.0 %\n     Extraction speed 3.6 X\n     Track quality 100.0 %\n     Test CRC 73DCC862\n     Copy CRC 73DCC862\n     Track not present in AccurateRip database\n     Copy OK\n\nTrack  4\n\n     Filename C:\\\\Users\\\\David\\\\Desktop\\\\Vetusta Morla\\\\Mapas\\\\Vetusta Morla - 04 - Track04.wav\n\n     Peak level 100.0 %\n     Extraction speed 3.9 X\n     Track quality 100.0 %\n     Test CRC D499E624\n     Copy CRC D499E624\n     Track not present in AccurateRip database\n     Copy OK\n\nTrack  5\n\n     Filename C:\\\\Users\\\\David\\\\Desktop\\\\Vetusta Morla\\\\Mapas\\\\Vetusta Morla - 05 - Track05.wav\n\n     Peak level 100.0 %\n     Extraction speed 4.1 X\n     Track quality 100.0 %\n     Test CRC 852EF389\n     Copy CRC 852EF389\n     Track not present in AccurateRip database\n     Copy OK\n\nTrack  6\n\n     Filename C:\\\\Users\\\\David\\\\Desktop\\\\Vetusta Morla\\\\Mapas\\\\Vetusta Morla - 06 - Track06.wav\n\n     Peak level 100.0 %\n     Extraction speed 4.2 X\n     Track quality 100.0 %\n     Test CRC D318B2C4\n     Copy CRC D318B2C4\n     Track not present in AccurateRip database\n     Copy OK\n\nTrack  7\n\n     Filename C:\\\\Users\\\\David\\\\Desktop\\\\Vetusta Morla\\\\Mapas\\\\Vetusta Morla - 07 - Track07.wav\n\n     Peak level 100.0 %\n     Extraction speed 4.5 X\n     Track quality 100.0 %\n     Test CRC 36F75AC3\n     Copy CRC 36F75AC3\n     Track not present in AccurateRip database\n     Copy OK\n\nTrack  8\n\n     Filename C:\\\\Users\\\\David\\\\Desktop\\\\Vetusta Morla\\\\Mapas\\\\Vetusta Morla - 08 - Track08.wav\n\n     Peak level 100.0 %\n     Extraction speed 4.6 X\n     Track quality 100.0 %\n     Test CRC D45B2F58\n     Copy CRC D45B2F58\n     Track not present in AccurateRip database\n     Copy OK\n\nTrack  9\n\n     Filename C:\\\\Users\\\\David\\\\Desktop\\\\Vetusta Morla\\\\Mapas\\\\Vetusta Morla - 09 - Track09.wav\n\n     Peak level 100.0 %\n     Extraction speed 4.5 X\n     Track quality 99.9 %\n     Test CRC 8DD22958\n     Copy CRC 8DD22958\n     Track not present in AccurateRip database\n     Copy OK\n\nTrack 10\n\n     Filename C:\\\\Users\\\\David\\\\Desktop\\\\Vetusta Morla\\\\Mapas\\\\Vetusta Morla - 10 - Track10.wav\n\n     Peak level 100.0 %\n     Extraction speed 5.0 X\n     Track quality 100.0 %\n     Test CRC C883D615\n     Copy CRC C883D615\n     Track not present in AccurateRip database\n     Copy OK\n\nTrack 11\n\n     Filename C:\\\\Users\\\\David\\\\Desktop\\\\Vetusta Morla\\\\Mapas\\\\Vetusta Morla - 11 - Track11.wav\n\n     Peak level 100.0 %\n     Extraction speed 5.2 X\n     Track quality 100.0 %\n     Test CRC E068EE5F\n     Copy CRC E068EE5F\n     Track not present in AccurateRip database\n     Copy OK\n\nTrack 12\n\n     Filename C:\\\\Users\\\\David\\\\Desktop\\\\Vetusta Morla\\\\Mapas\\\\Vetusta Morla - 12 - Track12.wav\n\n     Peak level 100.0 %\n     Extraction speed 5.4 X\n     Track quality 100.0 %\n     Test CRC 4F94B844\n     Copy CRC 4F94B844\n     Track not present in AccurateRip database\n     Copy OK\n\n\nNone of the tracks are present in the AccurateRip database\n\nNo errors occurred\n\nEnd of status report\n","torrent":{"xt":"urn:btih:95a2cd2c54b2b6b94a3dd4fa8c4a6b32a5fca5a5","amp;dn":"Vetusta+Morla+-+Mapas+%5BEAC+FLAC%5D","amp;tr":["udp%3A%2F%2Ftracker.openbittorrent.com%3A80","udp%3A%2F%2Fopen.demonii.com%3A1337","udp%3A%2F%2Ftracker.coppersurfer.tk%3A6969","udp%3A%2F%2Fexodus.desync.com%3A6969"],"infoHash":"95a2cd2c54b2b6b94a3dd4fa8c4a6b32a5fca5a5","infoHashBuffer":{"type":"Buffer","data":[149,162,205,44,84,178,182,185,74,61,212,250,140,74,107,50,165,252,165,165]},"announce":[],"urlList":[]}}